<svg xmlns="http://www.w3.org/2000/svg" style="display: none;">
  <svg id="home" viewBox="0 0 16 16" fill="none">
    <path
      d="M6.65625 13.3438H3.34375V8H1.34375L8 2L14.6562
8H12.6562V13.3438H9.34375V9.34375H6.65625V13.3438Z"
      fill="currentColor" />
  </svg>

  <svg id="search" viewBox="0 0 16 16" fill="none">
    <path
      d="M4.21875 8.46875C4.80208 9.05208 5.51042 9.34375 6.34375 9.34375C7.17708 9.34375 7.88542 9.05208
8.46875 8.46875C9.05208 7.88542 9.34375 7.17708 9.34375 6.34375C9.34375 5.51042 9.05208 4.80208
8.46875 4.21875C7.88542 3.63542 7.17708 3.34375 6.34375 3.34375C5.51042 3.34375 4.80208 3.63542
4.21875 4.21875C3.63542 4.80208 3.34375 5.51042 3.34375 6.34375C3.34375 7.17708 3.63542 7.88542
4.21875 8.46875ZM10.3438 9.34375L13.6562 12.6562L12.6562 13.6562L9.34375 10.3438V9.8125L9.15625
9.625C8.36458 10.3125 7.42708 10.6562 6.34375 10.6562C5.13542 10.6562 4.10417 10.2396 3.25
9.40625C2.41667 8.57292 2 7.55208 2 6.34375C2 5.13542 2.41667 4.11458 3.25 3.28125C4.10417 2.42708
5.13542 2 6.34375 2C7.55208 2 8.57292 2.42708 9.40625 3.28125C10.2396 4.11458 10.6562 5.13542
10.6562 6.34375C10.6562 6.78125 10.5521 7.28125 10.3438 7.84375C10.1354 8.38542 9.89583 8.82292
9.625 9.15625L9.8125 9.34375H10.3438Z"
      fill="currentColor" />
  </svg>

  <svg id="chats" viewBox="0 0 16 16" fill="none">
    <path
      d="M12 5.34375V4H4V5.34375H12ZM9.34375 9.34375V8H4V9.34375H9.34375ZM4 6V7.34375H12V6H4ZM13.3438 1.34375C13.6979 1.34375 14 1.47917 14.25 1.75C14.5208 2 14.6562 2.30208 14.6562 2.65625V10.6562C14.6562 11.0104 14.5208 11.3229 14.25 11.5938C14 11.8646 13.6979 12 13.3438 12H4L1.34375 14.6562V2.65625C1.34375 2.30208 1.46875 2 1.71875 1.75C1.98958 1.47917 2.30208 1.34375 2.65625 1.34375H13.3438Z"
      fill="currentColor" />
  </svg>

  <svg id="arrow" width="16" height="16" viewBox="0 0 16 16" fill="none">
    <path
      d="M5.22266 11.4453L8.66797 8L5.22266 4.55469L6.27734 3.5L10.7773 8L6.27734 12.5L5.22266 11.4453Z"
      fill="currentColor" />
  </svg>

  <svg id="settings" width="14" height="14" viewBox="0 0 14 14" fill="none">
    <path
      d="M5.34342 8.65625C5.80175 9.11458 6.35384 9.34375 6.99967 9.34375C7.6455 9.34375 8.19759 9.11458 8.65592 8.65625C9.11425 8.19792 9.34342 7.64583 9.34342 7C9.34342 6.35417 9.11425 5.80208 8.65592 5.34375C8.19759 4.88542 7.6455 4.65625 6.99967 4.65625C6.35384 4.65625 5.80175 4.88542 5.34342 5.34375C4.88509 5.80208 4.65592 6.35417 4.65592 7C4.65592 7.64583 4.88509 8.19792 5.34342 8.65625ZM11.9685 7.65625L13.3747 8.75C13.5205 8.85417 13.5414 9 13.4372 9.1875L12.0935 11.5C12.0101 11.6458 11.8747 11.6875 11.6872 11.625L10.0309 10.9688C9.59342 11.2812 9.21842 11.5 8.90592 11.625L8.65592 13.375C8.61425 13.5625 8.51009 13.6562 8.34342 13.6562H5.65592C5.48925 13.6562 5.38509 13.5625 5.34342 13.375L5.09342 11.625C4.69759 11.4583 4.32259 11.2396 3.96842 10.9688L2.31217 11.625C2.12467 11.6875 1.98925 11.6458 1.90592 11.5L0.562175 9.1875C0.458008 9 0.478842 8.85417 0.624675 8.75L2.03092 7.65625C2.01009 7.51042 1.99967 7.29167 1.99967 7C1.99967 6.70833 2.01009 6.48958 2.03092 6.34375L0.624675 5.25C0.478842 5.14583 0.458008 5 0.562175 4.8125L1.90592 2.5C1.98925 2.35417 2.12467 2.3125 2.31217 2.375L3.96842 3.03125C4.40592 2.71875 4.78092 2.5 5.09342 2.375L5.34342 0.625C5.38509 0.4375 5.48925 0.34375 5.65592 0.34375H8.34342C8.51009 0.34375 8.61425 0.4375 8.65592 0.625L8.90592 2.375C9.30175 2.54167 9.67675 2.76042 10.0309 3.03125L11.6872 2.375C11.8747 2.3125 12.0101 2.35417 12.0935 2.5L13.4372 4.8125C13.5414 5 13.5205 5.14583 13.3747 5.25L11.9685 6.34375C11.9893 6.48958 11.9997 6.70833 11.9997 7C11.9997 7.29167 11.9893 7.51042 11.9685 7.65625Z"
      fill="currentColor" />
  </svg>

  <svg width="16" height="16" viewBox="0 0 16 16" fill="none" id="settings">
    <path
      d="M6.34375 9.65625C6.80208 10.1146 7.35417 10.3438 8 10.3438C8.64583 10.3438 9.19792 10.1146 9.65625 9.65625C10.1146 9.19792 10.3438 8.64583 10.3438 8C10.3438 7.35417 10.1146 6.80208 9.65625 6.34375C9.19792 5.88542 8.64583 5.65625 8 5.65625C7.35417 5.65625 6.80208 5.88542 6.34375 6.34375C5.88542 6.80208 5.65625 7.35417 5.65625 8C5.65625 8.64583 5.88542 9.19792 6.34375 9.65625ZM12.9688 8.65625L14.375 9.75C14.5208 9.85417 14.5417 10 14.4375 10.1875L13.0938 12.5C13.0104 12.6458 12.875 12.6875 12.6875 12.625L11.0312 11.9688C10.5938 12.2812 10.2188 12.5 9.90625 12.625L9.65625 14.375C9.61458 14.5625 9.51042 14.6562 9.34375 14.6562H6.65625C6.48958 14.6562 6.38542 14.5625 6.34375 14.375L6.09375 12.625C5.69792 12.4583 5.32292 12.2396 4.96875 11.9688L3.3125 12.625C3.125 12.6875 2.98958 12.6458 2.90625 12.5L1.5625 10.1875C1.45833 10 1.47917 9.85417 1.625 9.75L3.03125 8.65625C3.01042 8.51042 3 8.29167 3 8C3 7.70833 3.01042 7.48958 3.03125 7.34375L1.625 6.25C1.47917 6.14583 1.45833 6 1.5625 5.8125L2.90625 3.5C2.98958 3.35417 3.125 3.3125 3.3125 3.375L4.96875 4.03125C5.40625 3.71875 5.78125 3.5 6.09375 3.375L6.34375 1.625C6.38542 1.4375 6.48958 1.34375 6.65625 1.34375H9.34375C9.51042 1.34375 9.61458 1.4375 9.65625 1.625L9.90625 3.375C10.3021 3.54167 10.6771 3.76042 11.0312 4.03125L12.6875 3.375C12.875 3.3125 13.0104 3.35417 13.0938 3.5L14.4375 5.8125C14.5417 6 14.5208 6.14583 14.375 6.25L12.9688 7.34375C12.9896 7.48958 13 7.70833 13 8C13 8.29167 12.9896 8.51042 12.9688 8.65625Z"
      fill="currentColor" />
  </svg>


  <svg id="uploads" width="32" height="32" viewBox="0 0 18 14" fill="none">
    <path
      d="M10.5117 7.73828H12.7617L9 4.01172L5.23828 7.73828H7.48828V10.7617H10.5117V7.73828ZM14.5195 5.52344C15.4805 5.59375 16.3008 5.99219 16.9805 6.71875C17.6602 7.42188 18 8.26562 18 9.25C18 10.2812 17.625 11.1719 16.875 11.9219C16.1484 12.6484 15.2695 13.0117 14.2383 13.0117H4.5C3.25781 13.0117 2.19141 12.5781 1.30078 11.7109C0.433594 10.8203 0 9.75391 0 8.51172C0 7.41016 0.386719 6.42578 1.16016 5.55859C1.95703 4.66797 2.90625 4.16406 4.00781 4.04688C4.5 3.13281 5.19141 2.39453 6.08203 1.83203C6.97266 1.26953 7.94531 0.988281 9 0.988281C10.2656 0.988281 11.4375 1.43359 12.5156 2.32422C13.6172 3.21484 14.2852 4.28125 14.5195 5.52344Z"
      fill="currentColor" />
  </svg>


  <svg id="send" width="16" height="16" viewBox="0 0 15 12"
    fill="none">
    <path d="M0.34375 12V7.34375L10.3438 6L0.34375 4.65625V0L14.3438 6L0.34375 12Z"
      fill="currentColor" />
  </svg>
  <svg id="comment" width="17" height="16" viewBox="0 0 17 16" fill="none">
    <path
      d="M11.8438 8C11.8438 8.1875 11.7708 8.34375 11.625 8.46875C11.5 8.59375 11.3438 8.65625 11.1562 8.65625H4.5L1.84375 11.3438V2C1.84375 1.8125 1.90625 1.65625 2.03125 1.53125C2.15625 1.40625 2.3125 1.34375 2.5 1.34375H11.1562C11.3438 1.34375 11.5 1.40625 11.625 1.53125C11.7708 1.65625 11.8438 1.8125 11.8438 2V8ZM14.5 4C14.6875 4 14.8438 4.0625 14.9688 4.1875C15.0938 4.3125 15.1562 4.46875 15.1562 4.65625V14.6562L12.5 12H5.15625C4.96875 12 4.8125 11.9375 4.6875 11.8125C4.5625 11.6875 4.5 11.5312 4.5 11.3438V10H13.1562V4H14.5Z"
      fill="currentColor" />
  </svg>


</svg>